<svg xmlns="http://www.w3.org/2000/svg" viewBox="0 0 157 157" fill="#EA7117" role="img" aria-label="AddWrap"><title>AddWrap</title><g transform="translate(0,15)"><path d="M0,0 L6,0 L11,4 L12,7 L12,49 L-2,50 L-6,58 L-14,78 L-16,77 L-20,69 L-43,69 L-48,78 L-50,76 L-59,52 L-59,50 L-83,50 L-86,55 L-107,108 L-111,104 L-128,68 L-129,63 L-126,56 L-121,53 L-92,40 L-53,23 L-14,6 Z " fill="#EA7117" transform="translate(137,8)"/><path d="M0,0 L1,0 L1,27 L-2,32 L-5,34 L-13,34 L-7,18 Z " fill="#EA7117" transform="translate(148,84)"/><path d="M0,0 L2,2 L12,27 L12,29 L-11,29 L-1,2 Z " fill="#EA7117" transform="translate(64,89)"/><path d="M0,0 L3,4 L5,10 L-4,10 Z " fill="#EA7117" transform="translate(105,108)"/></g></svg>