<svg xmlns="http://www.w3.org/2000/svg" viewBox="0 0 211.3 167.1" fill="currentColor" fill-rule="evenodd" role="img" aria-label="addWrap"><title>addWrap</title><path d="M209.74 105.88C208.04 104.55 204.80 105.82 203.62 108.78L196.67 126.22L181.35 164.25C181.06 164.97 181.32 165.70 181.68 166.26C181.93 166.67 182.62 167.13 183.31 167.13L195.09 167.06C203.94 166.40 211.18 159.01 211.21 150.12L211.34 109.96C211.35 108.34 211.02 106.89 209.74 105.88ZM187.65 81.83C187.98 81.00 188.73 79.95 189.74 79.94L209.51 79.83C210.79 79.83 211.31 78.39 211.31 77.28L211.33 20.48C211.33 15.51 210.05 10.69 206.93 6.88C205.29 4.88 203.29 3.49 201.05 2.34C196.47 0.00 191.40 0.19 186.71 2.22L84.21 46.71L49.26 61.88L12.40 77.83C9.38 79.13 6.75 80.79 4.64 83.21C1.50 86.79 0.08 91.15 0.03 95.83C0.00 99.38 0.91 102.35 2.42 105.52L23.10 149.10L26.99 157.43C27.78 159.10 28.75 160.59 30.14 161.77C31.49 162.91 32.85 163.91 34.64 163.97C36.54 164.03 38.28 163.12 38.97 161.30L41.85 153.74L55.61 119.09L70.80 80.95C71.10 80.18 71.75 79.88 72.54 79.88L99.27 79.84C100.03 79.84 100.71 80.30 100.98 81.01L109.83 104.03L117.49 123.77C117.91 124.86 118.92 125.42 119.96 125.41C121.07 125.40 121.85 124.73 122.34 123.65L129.75 107.42C129.75 107.41 129.75 107.41 129.75 107.40C130.10 106.63 130.86 106.13 131.70 106.13L157.23 106.13C157.95 106.13 158.60 106.55 158.90 107.21L161.46 112.83L166.57 123.90C166.68 124.15 166.85 124.37 167.06 124.54C167.53 124.92 168.04 125.24 168.65 125.32C169.94 125.48 171.01 124.61 171.47 123.41L177.87 106.70L185.86 86.44L187.65 81.83ZM148.56 146.50L146.30 141.63C145.91 140.79 144.99 140.39 144.03 140.52C143.44 140.60 142.54 141.14 142.18 141.95L132.70 163.16C132.28 164.10 131.90 164.92 132.42 165.81C132.85 166.53 133.62 167.14 134.67 167.14L154.33 167.11C155.32 167.11 155.98 166.38 156.26 165.87C156.71 165.06 156.53 164.28 156.16 163.47L148.56 146.50ZM102.39 151.47L95.48 134.32L89.86 120.27L87.48 114.65C87.06 113.66 86.36 113.05 85.31 112.97C84.62 112.91 83.38 113.38 83.01 114.30L77.28 128.56L63.20 164.18C62.90 164.95 63.23 165.86 63.65 166.38C64.00 166.81 64.65 167.14 65.44 167.14L105.45 167.14C106.31 167.14 106.99 166.78 107.39 166.21C107.71 165.74 107.99 164.91 107.67 164.14L102.39 151.47Z"/></svg>