<svg xmlns="http://www.w3.org/2000/svg" viewBox="0 0 462 86" fill="currentColor" class="block h-full w-auto" aria-hidden="true" focusable="false"><path d="M0,0 L13,0 L13,52 L0,52 L-1,49 L-10,53 L-23,53 L-31,50 L-38,42 L-39,39 L-39,27 L-35,19 L-25,13 L-15,12 L-6,14 L-1,17 Z M-19,22 L-24,25 L-26,29 L-26,37 L-21,43 L-18,44 L-8,44 L-2,40 L0,36 L-1,27 L-7,22 Z " fill="currentColor" transform="translate(107,9)"/><path d="M0,0 L32,0 L49,35 L50,36 L65,6 L69,0 L87,0 L104,35 L105,36 L123,0 L141,0 L139,6 L121,40 L114,52 L96,52 L91,44 L78,20 L76,20 L64,44 L59,52 L40,52 L26,25 L14,3 L13,52 L0,52 L0,48 L-7,52 L-11,53 L-23,53 L-31,50 L-38,42 L-40,32 L-38,24 L-34,18 L-28,14 L-16,12 L-6,14 L0,17 Z M-19,22 L-24,25 L-26,28 L-26,38 L-21,43 L-18,44 L-8,44 L-2,40 L0,31 L-3,25 L-7,22 Z " fill="currentColor" transform="translate(167,9)"/><path d="M0,0 L12,2 L17,5 L18,1 L31,1 L31,40 L18,40 L17,37 L8,41 L-5,41 L-14,37 L-19,31 L-21,26 L-21,16 L-18,9 L-11,3 L-6,1 Z M-1,10 L-6,13 L-8,17 L-8,24 L-5,29 L0,32 L10,32 L16,28 L18,24 L18,17 L13,11 L11,10 Z " fill="currentColor" transform="translate(29,21)"/><path d="M0,0 L9,1 L9,11 L0,11 L-6,13 L-7,16 L-8,40 L-22,40 L-22,2 L-21,1 L-9,1 L-7,3 Z " fill="currentColor" transform="translate(328,21)"/><path d="M0,0 L10,1 L18,5 L19,1 L31,1 L32,2 L32,40 L18,40 L17,37 L12,40 L8,41 L-5,41 L-15,36 L-20,28 L-21,18 L-18,10 L-13,4 L-6,1 Z M-1,10 L-6,14 L-8,19 L-6,28 L-2,31 L1,32 L10,32 L16,29 L18,25 L18,16 L13,11 L11,10 Z " fill="currentColor" transform="translate(361,21)"/><path d="M0,0 L12,2 L18,6 L22,10 L24,16 L24,26 L20,34 L14,39 L8,41 L-5,41 L-14,37 L-15,57 L-28,57 L-28,1 L-15,1 L-14,5 L-6,1 Z M-8,10 L-14,15 L-15,24 L-12,29 L-7,32 L3,32 L8,29 L11,24 L11,17 L8,12 L4,10 Z " fill="currentColor" transform="translate(430,21)"/></svg>